<svg xmlns="http://www.w3.org/2000/svg" viewBox="0 0 240 160" role="img" aria-label="The outback: a huge, dry, red desert with a big rock and a hot sun."><defs><linearGradient id="sky" x1="0" x2="0" y1="0" y2="1"><stop offset="0" stop-color="#f8d9a0"/><stop offset="1" stop-color="#f4b77c"/></linearGradient><linearGradient id="rock" x1="0" x2="0" y1="0" y2="1"><stop offset="0" stop-color="#d0643a"/><stop offset="1" stop-color="#a6431f"/></linearGradient></defs>
<rect width="240" height="160" rx="20" fill="url(#sky)"/>
<circle cx="186" cy="44" r="22" fill="#fff4d6"/><circle cx="186" cy="44" r="30" fill="#fff4d6" opacity=".35"/>
<path d="M40 112c10-24 30-34 62-36s52 6 64 18 20 18 22 18z" fill="url(#rock)"/>
<path d="M70 92c8-4 14-4 20 0M120 86c10-2 20 2 26 8" stroke="#8c3415" stroke-width="2.4" fill="none" stroke-linecap="round" opacity=".6"/>
<path d="M0 108c40-6 80 4 120 0s80-10 120-2v54H0z" fill="#c9693d"/>
<path d="M0 126c50-8 100 6 150 0s70-4 90 0v34H0z" fill="#b2532a"/>
<g fill="#7a8c3a"><ellipse cx="30" cy="118" rx="10" ry="5"/><ellipse cx="206" cy="122" rx="12" ry="5"/><ellipse cx="120" cy="140" rx="9" ry="4"/></g>
<g stroke="#7a8c3a" stroke-width="2" stroke-linecap="round"><path d="M26 116l-4-8M32 115l2-9M202 120l-4-8M210 119l3-8"/></g>
</svg>
