<svg xmlns="http://www.w3.org/2000/svg" viewBox="0 0 440 340" fill="none"><defs><filter id="s" x="-40%" y="-40%" width="180%" height="180%"><feDropShadow dx="0" dy="10" stdDeviation="9" flood-color="#182f3f" flood-opacity=".13"/></filter><filter id="s2" x="-40%" y="-40%" width="180%" height="180%"><feDropShadow dx="0" dy="4" stdDeviation="4" flood-color="#182f3f" flood-opacity=".12"/></filter><pattern id="d" width="12" height="12" patternUnits="userSpaceOnUse"><circle cx="1" cy="1" r=".9" fill="#182f3f" opacity=".16"/></pattern></defs><ellipse cx="222" cy="298" rx="150" ry="13" fill="#182f3f" opacity=".07"/><circle cx="220" cy="165" r="138" fill="#f6e9cf"/><circle cx="220" cy="165" r="152" stroke="#ad6a12" stroke-opacity=".22" stroke-dasharray="2 6" stroke-linecap="round"/><rect x="322" y="34" width="72" height="60" fill="url(#d)"/><rect x="38" y="236" width="60" height="48" fill="url(#d)"/><path d="M44 112h24m-12-12v24M372 238h22m-11-11v22" stroke="#ad6a12" stroke-width="2" stroke-linecap="round"/>
<g filter="url(#s)"><path d="M100 236h240l26 18H74z" fill="#ddd2bf"/><path d="M74 254h292v6a6 6 0 0 1-6 6H80a6 6 0 0 1-6-6z" fill="#c7baa3"/><path d="M196 254h48l-4 5h-40z" fill="#a99a80"/><rect x="116" y="88" width="208" height="150" rx="11" fill="#182f3f"/><rect x="126" y="98" width="188" height="130" rx="5" fill="#fffdf5"/></g>
<rect x="126" y="98" width="188" height="16" rx="5" fill="#f1ebdf"/><circle cx="136" cy="106" r="2.6" fill="#e2725b"/><circle cx="145" cy="106" r="2.6" fill="#e3a843"/><circle cx="154" cy="106" r="2.6" fill="#7fae8a"/>
<rect x="220" y="122" width="82" height="24" rx="10" fill="#ebcf98"/><path d="M231 131h52m-52 7h34" stroke="#9a6514" stroke-width="2.6" stroke-linecap="round" opacity=".7"/>
<rect x="138" y="154" width="122" height="46" rx="10" fill="#f4efe5"/><circle cx="152" cy="168" r="8" fill="#ad6a12"/><path d="m152 162 1.6 4.4 4.4 1.6-4.4 1.6-1.6 4.4-1.6-4.4-4.4-1.6 4.4-1.6z" fill="#fffdf5"/><path d="M166 166h80m-80 8h64m-94 13h104" stroke="#b9ad98" stroke-width="2.6" stroke-linecap="round"/>
<rect x="138" y="207" width="164" height="14" rx="7" fill="#fff" stroke="#e1d8c8"/><path d="M146 214h60" stroke="#d6ccba" stroke-width="2.4" stroke-linecap="round"/><circle cx="294" cy="214" r="5" fill="#ad6a12"/><path d="m292 214 2-2 2 2m-2-2v5" stroke="#fff" stroke-width="1.4" stroke-linecap="round"/>
<g filter="url(#s)" transform="rotate(-9 82 168)"><rect x="38" y="112" width="88" height="114" rx="8" fill="#fffdf5"/><path d="M38 120a8 8 0 0 1 8-8h72a8 8 0 0 1 8 8v8H38z" fill="#182f3f"/><circle cx="82" cy="156" r="15" fill="#ad6a12"/><circle cx="82" cy="156" r="10" stroke="#f6e9cf" stroke-width="1.6" stroke-dasharray="2 2.4"/><path d="m82 150 1.8 3.8 4.2.5-3.1 2.9.8 4.1-3.7-2-3.7 2 .8-4.1-3.1-2.9 4.2-.5z" fill="#f6e9cf"/><path d="M52 182h60m-60 10h60m-60 10h40m-40 10h50" stroke="#cdbfa6" stroke-width="2.6" stroke-linecap="round"/></g>
<g filter="url(#s2)"><circle cx="358" cy="128" r="19" fill="#2f7a52"/><path d="m349 128 6 6 12-12" stroke="#fff" stroke-width="3.4" stroke-linecap="round" stroke-linejoin="round"/><circle cx="374" cy="184" r="15" fill="#c2552d"/><path d="m368 178 12 12m0-12-12 12" stroke="#fff" stroke-width="3" stroke-linecap="round"/></g>
<path d="M352 62l3 8 8 3-8 3-3 8-3-8-8-3 8-3z" fill="#e3a843"/><path d="M98 66l2 5 5 2-5 2-2 5-2-5-5-2 5-2z" fill="#ad6a12" opacity=".6"/><circle cx="398" cy="150" r="3.5" fill="#182f3f"/><circle cx="60" cy="236" r="5" fill="#ad6a12" opacity=".5"/>
</svg>
