<svg xmlns="http://www.w3.org/2000/svg" viewBox="0 0 440 340" fill="none"><defs><filter id="s" x="-40%" y="-40%" width="180%" height="180%"><feDropShadow dx="0" dy="10" stdDeviation="9" flood-color="#182f3f" flood-opacity=".13"/></filter><filter id="s2" x="-40%" y="-40%" width="180%" height="180%"><feDropShadow dx="0" dy="4" stdDeviation="4" flood-color="#182f3f" flood-opacity=".12"/></filter><pattern id="d" width="12" height="12" patternUnits="userSpaceOnUse"><circle cx="1" cy="1" r=".9" fill="#182f3f" opacity=".16"/></pattern></defs><ellipse cx="222" cy="298" rx="150" ry="13" fill="#182f3f" opacity=".07"/><circle cx="220" cy="165" r="138" fill="#e7e9ec"/><circle cx="220" cy="165" r="152" stroke="#14293a" stroke-opacity=".22" stroke-dasharray="2 6" stroke-linecap="round"/><rect x="322" y="34" width="72" height="60" fill="url(#d)"/><rect x="38" y="236" width="60" height="48" fill="url(#d)"/><path d="M44 112h24m-12-12v24M372 238h22m-11-11v22" stroke="#14293a" stroke-width="2" stroke-linecap="round"/>
<g filter="url(#s)"><rect x="108" y="70" width="170" height="216" rx="12" fill="#c7a77a"/><rect x="118" y="84" width="150" height="194" rx="6" fill="#fffdf5"/><rect x="160" y="60" width="66" height="26" rx="8" fill="#182f3f"/><circle cx="193" cy="66" r="4" fill="#c7a77a"/>
<g stroke-linecap="round" stroke-linejoin="round"><rect x="134" y="106" width="16" height="16" rx="4" fill="#2f7a52"/><path d="m138 114 3 3 6-6" stroke="#fff" stroke-width="2.2"/><path d="M160 114h90" stroke="#c4c8cc" stroke-width="3"/>
<rect x="134" y="138" width="16" height="16" rx="4" fill="#2f7a52"/><path d="m138 146 3 3 6-6" stroke="#fff" stroke-width="2.2"/><path d="M160 146h76" stroke="#c4c8cc" stroke-width="3"/>
<rect x="134" y="170" width="16" height="16" rx="4" fill="#2f7a52"/><path d="m138 178 3 3 6-6" stroke="#fff" stroke-width="2.2"/><path d="M160 178h84" stroke="#c4c8cc" stroke-width="3"/>
<rect x="134" y="202" width="16" height="16" rx="4" stroke="#9aa3ab" stroke-width="2"/><path d="M160 210h64" stroke="#c4c8cc" stroke-width="3"/>
<rect x="134" y="234" width="16" height="16" rx="4" stroke="#9aa3ab" stroke-width="2"/><path d="M160 242h80" stroke="#c4c8cc" stroke-width="3"/></g></g>
<g filter="url(#s)"><circle cx="318" cy="198" r="56" fill="#fffdf5"/><circle cx="318" cy="198" r="46" stroke="#182f3f" stroke-width="5"/><rect x="306" y="126" width="24" height="14" rx="4" fill="#182f3f"/><path d="M318 198V166" stroke="#182f3f" stroke-width="5" stroke-linecap="round"/><path d="M318 198l20 12" stroke="#c2552d" stroke-width="4" stroke-linecap="round"/><path d="M318 198 318 152A46 46 0 0 1 358 175z" fill="#e3a843" opacity=".35"/><circle cx="318" cy="198" r="6" fill="#182f3f"/><path d="M318 160v6m38 32h-6m-32 38v-6m-38-32h6" stroke="#182f3f" stroke-width="3" stroke-linecap="round"/></g>
<circle cx="80" cy="150" r="5" fill="#14293a" opacity=".4"/><path d="M372 70l3 8 8 3-8 3-3 8-3-8-8-3 8-3z" fill="#e3a843"/>
</svg>
