<svg xmlns="http://www.w3.org/2000/svg" viewBox="0 0 440 340" fill="none"><defs><filter id="s" x="-40%" y="-40%" width="180%" height="180%"><feDropShadow dx="0" dy="10" stdDeviation="9" flood-color="#182f3f" flood-opacity=".13"/></filter><filter id="s2" x="-40%" y="-40%" width="180%" height="180%"><feDropShadow dx="0" dy="4" stdDeviation="4" flood-color="#182f3f" flood-opacity=".12"/></filter><pattern id="d" width="12" height="12" patternUnits="userSpaceOnUse"><circle cx="1" cy="1" r=".9" fill="#182f3f" opacity=".16"/></pattern></defs><ellipse cx="222" cy="298" rx="150" ry="13" fill="#182f3f" opacity=".07"/><circle cx="220" cy="165" r="138" fill="#f6e1d6"/><circle cx="220" cy="165" r="152" stroke="#b0512a" stroke-opacity=".22" stroke-dasharray="2 6" stroke-linecap="round"/><rect x="322" y="34" width="72" height="60" fill="url(#d)"/><rect x="38" y="236" width="60" height="48" fill="url(#d)"/><path d="M44 112h24m-12-12v24M372 238h22m-11-11v22" stroke="#b0512a" stroke-width="2" stroke-linecap="round"/>
<g filter="url(#s)" transform="rotate(-4 200 170)"><rect x="98" y="54" width="186" height="232" rx="10" fill="#fffdf5"/><rect x="98" y="54" width="186" height="30" rx="10" fill="#182f3f"/><path d="M114 69h70" stroke="#e8b9a3" stroke-width="3.4" stroke-linecap="round"/>
<rect x="114" y="98" width="154" height="36" rx="6" fill="#f6e1d6"/><path d="M124 110h100m-100 11h70" stroke="#b0512a" stroke-width="2.8" stroke-linecap="round" opacity=".75"/>
<rect x="114" y="142" width="154" height="44" rx="6" fill="#f3efe7"/><circle cx="126" cy="154" r="4" fill="#b0512a"/><path d="M136 154h110m-110 11h90m-90 11h104" stroke="#c4bba9" stroke-width="2.8" stroke-linecap="round"/>
<rect x="114" y="194" width="154" height="44" rx="6" fill="#f3efe7"/><circle cx="126" cy="206" r="4" fill="#b0512a"/><path d="M136 206h104m-104 11h96m-96 11h76" stroke="#c4bba9" stroke-width="2.8" stroke-linecap="round"/>
<rect x="114" y="246" width="154" height="26" rx="6" fill="#f6e1d6"/><path d="M124 259h90" stroke="#b0512a" stroke-width="2.8" stroke-linecap="round" opacity=".75"/></g>
<g filter="url(#s)" transform="rotate(38 318 170)"><rect x="306" y="62" width="24" height="176" rx="4" fill="#e3a843"/><rect x="306" y="62" width="8" height="176" fill="#f1c675"/><rect x="306" y="56" width="24" height="22" rx="4" fill="#d27e74"/><rect x="306" y="76" width="24" height="8" fill="#b9bfc4"/><path d="M306 238h24l-12 30z" fill="#f5dcc0"/><path d="M314 258h8l-4 10z" fill="#182f3f"/></g>
<path d="M78 120c10-8 22-8 30 0" stroke="#b0512a" stroke-width="2.4" stroke-linecap="round" opacity=".5"/>
<circle cx="392" cy="128" r="4" fill="#182f3f"/><circle cx="66" cy="204" r="5" fill="#b0512a" opacity=".5"/>
</svg>
